<svg width="220" height="77" viewBox="0 0 220 77" fill="none" xmlns="http://www.w3.org/2000/svg">
<path fill-rule="evenodd" clip-rule="evenodd" d="M36.5386 59.9316C49.4586 59.9316 59.9324 49.4579 59.9324 36.5378C59.9324 23.6178 49.4586 13.144 36.5386 13.144C23.6185 13.144 13.1448 23.6178 13.1448 36.5378C13.1448 49.4579 23.6185 59.9316 36.5386 59.9316ZM38.1122 33.3133L41.0559 28.0499L43.7577 33.3133H38.1122ZM46.1517 38.187H35.3866L27.9429 51.497C27.2859 52.6716 25.8012 53.0913 24.6266 52.4344C23.4519 51.7775 23.0323 50.2927 23.6892 49.1181L29.8025 38.187H26.8314C25.4855 38.187 24.3945 37.096 24.3945 35.7502C24.3945 34.4043 25.4855 33.3133 26.8314 33.3133H32.5281L38.1335 23.2905C39.4625 20.9142 42.9028 20.9755 44.1462 23.3978L49.1868 33.2175C50.3522 35.4878 48.7036 38.187 46.1517 38.187Z" fill="#14D2B8"/>
<path d="M79.8158 28.0135C81.4846 28.0135 82.8024 28.4424 83.7694 29.3002C84.7519 30.1579 85.2432 31.3354 85.2432 32.8326C85.2432 34.3298 84.7519 35.5073 83.7694 36.3651C82.8024 37.2073 81.4846 37.6284 79.8158 37.6284H76.3769V43.4534H73.8738V28.0135H79.8158ZM79.4181 35.4995C80.5098 35.4995 81.3208 35.2812 81.8511 34.8445C82.3813 34.3922 82.6465 33.7216 82.6465 32.8326C82.6465 31.0391 81.5703 30.1424 79.4181 30.1424H76.3769V35.4995H79.4181Z" fill="#5E6166"/>
<path d="M94.0147 31.5226C95.3092 31.5226 96.3619 31.8969 97.1729 32.6455C97.9995 33.3941 98.4128 34.4702 98.4128 35.8738V43.4534H95.9096V36.6692C95.9096 34.6106 95.0753 33.5812 93.4065 33.5812C92.5331 33.5812 91.7845 33.8854 91.1607 34.4936C90.5369 35.1018 90.225 36.0298 90.225 37.2775V43.4534H87.7218V26.4929H90.225V33.628C90.6148 32.9106 91.1295 32.3804 91.7689 32.0373C92.424 31.6941 93.1726 31.5226 94.0147 31.5226Z" fill="#5E6166"/>
<path d="M111.844 41.8159C112.187 41.8159 112.476 41.7847 112.71 41.7223L112.546 43.4066C112.125 43.5938 111.641 43.6874 111.096 43.6874C110.425 43.6874 109.887 43.5548 109.481 43.2897C109.091 43.0245 108.834 42.5801 108.709 41.9562C108.351 42.5021 107.82 42.931 107.119 43.2429C106.417 43.5392 105.629 43.6874 104.756 43.6874C103.617 43.6874 102.697 43.4222 101.995 42.892C101.294 42.3617 100.943 41.6053 100.943 40.6228C100.943 39.7026 101.325 38.9306 102.089 38.3068C102.853 37.6674 103.992 37.2151 105.504 36.9499L108.475 36.4353V35.8037C108.475 35.0862 108.265 34.5248 107.844 34.1193C107.423 33.6982 106.838 33.4877 106.089 33.4877C104.545 33.4877 103.539 34.1895 103.071 35.5931L101.13 34.5638C101.41 33.628 101.98 32.8872 102.837 32.3414C103.711 31.7955 104.779 31.5226 106.042 31.5226C107.555 31.5226 108.756 31.8735 109.645 32.5753C110.534 33.2771 110.979 34.3065 110.979 35.6633V40.9503C110.979 41.2466 111.041 41.465 111.166 41.6053C111.306 41.7457 111.532 41.8159 111.844 41.8159ZM105.294 41.7925C106.136 41.7925 106.877 41.5897 107.516 41.1842C108.156 40.7787 108.475 40.2407 108.475 39.5701V38.1664L105.925 38.6811C105.114 38.8371 104.514 39.0554 104.124 39.3361C103.734 39.6168 103.539 39.9911 103.539 40.459C103.539 40.8957 103.687 41.231 103.984 41.465C104.296 41.6833 104.732 41.7925 105.294 41.7925Z" fill="#5E6166"/>
<path d="M118.846 43.6874C117.661 43.6874 116.608 43.4846 115.688 43.0791C114.783 42.6736 114.097 42.0576 113.629 41.231L115.314 39.7806C115.61 40.4512 116.07 40.9425 116.694 41.2544C117.318 41.5663 118.066 41.7223 118.94 41.7223C119.735 41.7223 120.351 41.5975 120.788 41.348C121.225 41.0829 121.443 40.7397 121.443 40.3187C121.443 39.9444 121.24 39.648 120.835 39.4297C120.429 39.1958 119.727 38.9774 118.729 38.7747C116.998 38.4472 115.782 38.0105 115.08 37.4646C114.378 36.9188 114.027 36.1468 114.027 35.1486C114.027 34.5092 114.222 33.9166 114.612 33.3707C115.002 32.8092 115.563 32.3648 116.296 32.0373C117.045 31.6941 117.926 31.5226 118.94 31.5226C120.234 31.5226 121.271 31.7409 122.051 32.1776C122.831 32.5987 123.431 33.2615 123.852 34.1661L122.075 35.4761C121.794 34.7899 121.396 34.2909 120.881 33.9789C120.382 33.6514 119.743 33.4877 118.963 33.4877C118.261 33.4877 117.676 33.6358 117.209 33.9322C116.756 34.2129 116.53 34.5404 116.53 34.9147C116.53 35.3358 116.733 35.6711 117.138 35.9206C117.56 36.1702 118.316 36.3963 119.408 36.599C121.061 36.8954 122.23 37.3165 122.917 37.8623C123.603 38.4082 123.946 39.1724 123.946 40.1549C123.946 41.1998 123.494 42.0498 122.589 42.7048C121.685 43.3599 120.437 43.6874 118.846 43.6874Z" fill="#5E6166"/>
<path d="M136.96 37.2541C136.96 37.7063 136.929 38.1352 136.867 38.5407H128.305C128.445 39.5701 128.812 40.3576 129.404 40.9035C129.997 41.4338 130.761 41.6989 131.697 41.6989C132.461 41.6989 133.093 41.5663 133.592 41.3012C134.106 41.0205 134.457 40.6228 134.644 40.1081L136.727 40.9737C135.853 42.7828 134.177 43.6874 131.697 43.6874C129.857 43.6874 128.414 43.1493 127.369 42.0732C126.34 40.9971 125.825 39.5077 125.825 37.605C125.825 35.6867 126.324 34.1973 127.322 33.1368C128.32 32.0606 129.724 31.5226 131.533 31.5226C133.249 31.5226 134.582 32.045 135.533 33.09C136.485 34.1349 136.96 35.5229 136.96 37.2541ZM131.533 33.5111C130.629 33.5111 129.896 33.7762 129.334 34.3065C128.788 34.8367 128.445 35.6087 128.305 36.6224H134.621C134.496 35.6399 134.161 34.8757 133.615 34.3298C133.085 33.784 132.391 33.5111 131.533 33.5111Z" fill="#5E6166"/>
<path d="M145.807 28.0135C147.476 28.0135 148.794 28.4424 149.761 29.3002C150.743 30.1579 151.235 31.3354 151.235 32.8326C151.235 34.3298 150.743 35.5073 149.761 36.3651C148.794 37.2073 147.476 37.6284 145.807 37.6284H142.368V43.4534H139.865V28.0135H145.807ZM145.41 35.4995C146.501 35.4995 147.312 35.2812 147.843 34.8445C148.373 34.3922 148.638 33.7216 148.638 32.8326C148.638 31.0391 147.562 30.1424 145.41 30.1424H142.368V35.4995H145.41Z" fill="#5E6166"/>
<path d="M156.146 40.0379C156.146 40.615 156.232 41.0205 156.404 41.2544C156.575 41.4728 156.895 41.5819 157.363 41.5819C157.659 41.5819 157.909 41.5663 158.111 41.5351C158.33 41.4883 158.595 41.4026 158.907 41.2778L158.626 43.2897C158.096 43.5548 157.449 43.6874 156.684 43.6874C155.639 43.6874 154.867 43.4222 154.368 42.892C153.885 42.3617 153.643 41.5273 153.643 40.3888V26.4929H156.146V40.0379Z" fill="#5E6166"/>
<path d="M170.662 41.8159C171.005 41.8159 171.294 41.7847 171.528 41.7223L171.364 43.4066C170.943 43.5938 170.459 43.6874 169.914 43.6874C169.243 43.6874 168.705 43.5548 168.299 43.2897C167.91 43.0245 167.652 42.5801 167.527 41.9562C167.169 42.5021 166.638 42.931 165.937 43.2429C165.235 43.5392 164.447 43.6874 163.574 43.6874C162.435 43.6874 161.515 43.4222 160.813 42.892C160.112 42.3617 159.761 41.6053 159.761 40.6228C159.761 39.7026 160.143 38.9306 160.907 38.3068C161.671 37.6674 162.81 37.2151 164.322 36.9499L167.293 36.4353V35.8037C167.293 35.0862 167.083 34.5248 166.662 34.1193C166.241 33.6982 165.656 33.4877 164.907 33.4877C163.363 33.4877 162.357 34.1895 161.889 35.5931L159.948 34.5638C160.229 33.628 160.798 32.8872 161.656 32.3414C162.529 31.7955 163.597 31.5226 164.861 31.5226C166.373 31.5226 167.574 31.8735 168.463 32.5753C169.352 33.2771 169.797 34.3065 169.797 35.6633V40.9503C169.797 41.2466 169.859 41.465 169.984 41.6053C170.124 41.7457 170.35 41.8159 170.662 41.8159ZM164.112 41.7925C164.954 41.7925 165.695 41.5897 166.334 41.1842C166.974 40.7787 167.293 40.2407 167.293 39.5701V38.1664L164.744 38.6811C163.933 38.8371 163.332 39.0554 162.942 39.3361C162.552 39.6168 162.357 39.9911 162.357 40.459C162.357 40.8957 162.506 41.231 162.802 41.465C163.114 41.6833 163.55 41.7925 164.112 41.7925Z" fill="#5E6166"/>
<path d="M178.126 44.8337C177.611 46.1749 177.026 47.1185 176.371 47.6643C175.716 48.2102 174.858 48.4831 173.798 48.4831C173.19 48.4831 172.659 48.4051 172.207 48.2492C171.77 48.1088 171.38 47.8749 171.037 47.5473L171.763 45.6291C172.23 46.1905 172.87 46.4712 173.681 46.4712C174.149 46.4712 174.539 46.3465 174.851 46.0969C175.178 45.863 175.467 45.4263 175.716 44.7869L176.231 43.5236L175.014 40.6228L171.365 31.7565H174.172L176.745 39.1022L177.424 41.3012L178.219 38.8916L180.652 31.7565H183.249L178.126 44.8337Z" fill="#5E6166"/>
<path d="M190.503 29.7914C189.973 29.7914 189.56 29.6589 189.263 29.3938C188.967 29.113 188.819 28.7231 188.819 28.2241C188.819 27.725 188.967 27.3429 189.263 27.0778C189.56 26.8126 189.973 26.6801 190.503 26.6801C191.033 26.6801 191.439 26.8126 191.72 27.0778C192.016 27.3429 192.164 27.725 192.164 28.2241C192.164 28.7231 192.016 29.113 191.72 29.3938C191.439 29.6589 191.033 29.7914 190.503 29.7914ZM191.743 43.4534H189.24V31.7565H191.743V43.4534Z" fill="#5E6166"/>
<path d="M200.338 31.5226C202.163 31.5226 203.59 32.0606 204.619 33.1368C205.649 34.2129 206.163 35.7023 206.163 37.605C206.163 39.5077 205.649 40.9971 204.619 42.0732C203.59 43.1493 202.163 43.6874 200.338 43.6874C198.514 43.6874 197.087 43.1493 196.057 42.0732C195.028 40.9971 194.513 39.5077 194.513 37.605C194.513 35.7023 195.028 34.2129 196.057 33.1368C197.087 32.0606 198.514 31.5226 200.338 31.5226ZM200.338 33.4877C199.278 33.4877 198.459 33.8464 197.882 34.5638C197.321 35.2656 197.04 36.2793 197.04 37.605C197.04 38.9306 197.321 39.9522 197.882 40.6696C198.459 41.3714 199.278 41.7223 200.338 41.7223C201.399 41.7223 202.218 41.3636 202.795 40.6462C203.372 39.9288 203.66 38.915 203.66 37.605C203.66 36.2949 203.372 35.2812 202.795 34.5638C202.218 33.8464 201.399 33.4877 200.338 33.4877Z" fill="#5E6166"/>
<path fill-rule="evenodd" clip-rule="evenodd" d="M184.938 42.2671C185.307 42.2671 185.605 41.9683 185.605 41.5997C185.605 41.2312 185.307 40.9324 184.938 40.9324C184.57 40.9324 184.271 41.2312 184.271 41.5997C184.271 41.9683 184.57 42.2671 184.938 42.2671ZM184.938 43.6018C186.044 43.6018 186.94 42.7054 186.94 41.5997C186.94 40.494 186.044 39.5977 184.938 39.5977C183.832 39.5977 182.936 40.494 182.936 41.5997C182.936 42.7054 183.832 43.6018 184.938 43.6018Z" fill="#5E6166"/>
</svg>
